<?xml version="1.0" encoding="utf-8"?>
<!-- Generator: Adobe Illustrator 18.0.0, SVG Export Plug-In . SVG Version: 6.00 Build 0)  -->
<!DOCTYPE svg PUBLIC "-//W3C//DTD SVG 1.1//EN" "http://www.w3.org/Graphics/SVG/1.1/DTD/svg11.dtd">
<svg version="1.1" id="Layer_1" xmlns="http://www.w3.org/2000/svg" xmlns:xlink="http://www.w3.org/1999/xlink" x="0px" y="0px"
	 viewBox="0 0 211 209.6" enable-background="new 0 0 211 209.6" xml:space="preserve">
<g>
	<path fill="#FFFFFF" d="M165.9,114.5c0-3.5-0.4-7.1-1-10.7c-4.9-28.7-30.3-49.6-60.3-49.6c-1.8,0-3.5,0.1-5.3,0.2
		C69.5,56.8,45.2,83.3,45,113.5c-0.1,13.3-0.1,26.7,0,39.7l0,11.8c0,10.5,2.6,21,7.7,31.1c0.5,1,1.2,2,1.9,2.9
		c0.3,0.4,0.5,0.7,0.8,1.1l1.1,1.6l4.9-2.9l-0.7-1.6c-0.2-0.4-0.4-0.8-0.5-1.2l-0.1-0.1c-0.4-1-0.9-2-1.4-3c-4.5-9.2-6.8-18-6.8-27
		c0-4.8-0.1-9.6-0.1-14.4c-0.1-12.8-0.2-26,0.1-39c0.6-26.1,21.7-49.1,47.1-51.4c1.9-0.2,3.7-0.3,5.6-0.3
		c27.1,0,49.1,17.5,53.4,42.6c1.6,9.4,1.5,19.4,1.4,29.1c0,3.4-0.1,7,0,10.4c0,1.4,0,2.7,0.1,4.1l0,0.2c0.1,6.6,0.3,13.4-0.9,19.7
		c-3.8,20.6-20.9,34.4-42.4,34.4c-1.7,0-3.3-0.1-5-0.2c-20.5-2-36.8-20.6-37.1-42.4c-0.2-12.8-0.1-25.4,0-39.4
		c0.1-16,12.1-29.8,27.4-31.4c1.3-0.1,2.5-0.2,3.8-0.2c16.1,0,28.7,10.2,30.7,24.8c2.1,16,1.5,32.4,0.7,44.9
		c-0.6,9.7-9.1,16.7-20.3,16.7c-0.3,0-0.6,0-1,0c-10-0.4-18.2-8.3-18.8-18.1c-0.7-11.2-0.5-22.5-0.2-32.3c0.1-5.5,4.2-9.2,9.7-9
		c4.6,0.2,7.1,3.6,7.2,9.5c0,3.4,0,6.8,0,10.2c0,3.7,0,7.5,0,11.3c0,1.3,0.3,2.4,0.6,3.6c0.1,0.4,0.2,0.9,0.3,1.3l0.4,1.9l4.6-0.7
		l0.2-1.4c0-0.3,0.1-0.6,0.2-0.9c0.2-0.8,0.3-1.6,0.3-2.6l0-1.3c0-7.1,0.1-14.4,0-21.7c-0.1-9.5-5.9-15.9-14.5-15.9
		c-8.9,0-15.5,6.7-15.6,16c-0.2,12.8-0.1,22.5,0.2,31.6c0.4,13.4,11.1,24.5,24.3,25.3c0.7,0,1.3,0.1,2,0.1
		c14.1,0,25.4-9.3,26.7-22.2c1-9.9,0.9-20,0.9-29.8c0-2.8,0-5.5,0-8.3c0-10.9-3.9-20.9-11-28.3c-7.1-7.3-16.8-11.4-27.4-11.4
		c-21.7,0-38.1,17.1-38.2,39.7c-0.1,14.6,0,26.7,0,38c0.2,27.2,22.3,49.3,49.4,49.3h0c27.5,0,49.2-21.6,49.3-49.2
		C166,144.6,166,129.6,165.9,114.5z"/>
	<path fill="#FFFFFF" d="M82.6,203.5c-0.6-0.7-1.3-1.5-2-2.2c-12.2-11.5-18-24.9-17.8-41.2c0.1-8.8,0.1-17.8,0-26.4l0-0.3
		c0-5.4,0-10.8,0-16.2c0.1-23.7,19.1-43,42.5-43h0.1c11.4,0,22.1,4.5,30.1,12.6c8,8.1,12.5,18.9,12.5,30.4
		c0.1,13.3,0.1,26.5,0.1,39.5c0,17.1-13.9,31.2-30.9,31.5c-0.2,0-0.4,0-0.6,0c-17.1,0-31.2-13.8-31.6-30.7
		c-0.2-10.5-0.2-21.5,0-35.9c0.2-9.2,5.8-16.6,14.8-19.4c1.3-0.3,3.2-0.7,5.9-0.7c2.2,0,3.9,0.3,5.2,0.7c10.8,4.3,14.9,10.3,15,22
		c0,7.8,0,16.3-0.1,26c-0.1,6.6-3.7,11-9,11l-0.3,0c-6.8-0.2-7.8-7.1-7.8-11.2c0-2.7,0-5.5,0-8.2c0-3.9,0.1-7.8,0-11.8
		c0-1.2-0.3-2.3-0.6-3.8c-0.2-0.7-0.3-1.4-0.5-2.3l-1-4.9l-2.7,4.2c-0.4,0.6-0.7,1-0.9,1.3c-0.5,0.7-0.9,1.2-0.9,2.1
		c0,2.3,0,4.5-0.1,6.8c-0.1,6.8-0.2,13.8,0.2,20.8c0.2,4.2,3.6,8.3,4.6,9.4c2.6,2.8,5.7,4.2,9.4,4.2h0c2,0,4.1-0.4,6.2-1.3
		c6.2-2.5,9.8-7.5,10-14.1c0.4-12.2,0.4-22.3-0.1-31.6c-0.5-11.2-6.3-19.5-16.9-24.1c-0.1,0-0.2-0.1-0.3-0.1l0,0
		c0,0-3.5-1.8-9.3-1.8c-5.8,0-8.9,1.4-8.9,1.4l0,0c-11.1,3.5-18.4,13.6-18.6,25.7c-0.2,12.3-0.2,24.3,0,35.5
		c0.4,16.7,11.3,31,27.1,35.7c3.8,1.1,7.7,1.7,11.6,1.7c12.8,0,24.1-6.2,30.9-17c3.8-6.1,6.3-13.6,6.5-20c0.6-16,1-33-0.9-49.6
		c-2.6-22.4-23.8-40.7-47.2-40.7c-1.1,0-2.2,0-3.3,0.1c-26.6,2.1-46.8,22.7-47.1,48c-0.2,16.8-0.3,31.9,0,47
		c0.3,16.9,7,31.5,19.8,43.4c0.9,0.8,1.8,1.4,2.8,2c0.4,0.2,0.8,0.4,1.1,0.7l1.5,1l3.3-4l-1.2-1.3C83.2,204.1,82.9,203.8,82.6,203.5
		z"/>
	<path fill="#FFFFFF" d="M159.4,46.9c-15-12.8-34.3-19.9-54.1-19.9c-5,0-10,0.4-14.9,1.3c-17.6,3.1-34.1,12.3-46.5,25.9
		c-12.4,13.7-19.8,31-20.8,48.7c-0.9,15.6-0.8,31.5-0.7,46.9l0,0.2c0,6.2,0.1,12.6,0.1,18.9c0,1.3,0.4,2.4,0.7,3.5
		c0.1,0.4,0.3,0.8,0.3,1.2l0.5,1.8l4.7-0.9l0.1-1.6c0-0.5,0-1,0.1-1.5c0.1-1.1,0.1-2.2,0.1-3.3c0-5.9,0-11.8,0-17.8
		c0-12.8,0-26.1,0.1-39.2c0-3.9,0.2-9.1,1.1-14c7.4-37.8,37.6-63.2,75.3-63.2c4.7,0,9.4,0.4,14.2,1.2c32.4,5.4,59.2,34.5,61.2,66.2
		c1,15.6,0.8,31.6,0.6,47.2c-0.1,7.1-0.1,14.4-0.1,21.6c0,1,0.1,1.9,0.3,2.8c0.1,0.4,0.1,0.8,0.1,1.1l0.2,1.7l5.1,0.1l0.3-1.7
		c0.1-0.4,0.2-0.9,0.2-1.4c0.2-1.1,0.4-2.3,0.4-3.5l0.1-5.5c0.1-10.3,0.3-21,0.2-31.5c0-3,0-6.1,0.1-9c0.1-8.3,0.3-16.9-0.9-25.2
		C184.7,78.1,174.7,60,159.4,46.9z"/>
	<path fill="#FFFFFF" d="M209.7,89.9c-3.7-24-14.5-44.7-32.2-61.5C158,10.1,132.4,0,105.3,0c-21.5,0-42,6.4-59.4,18.5
		C25.6,32.5,11.7,51.7,4.4,75.3c-5.2,16.8-4.8,33.9-4,48.7l0.2,1.7l5.5,0.5l0.2-1.9c0-0.4,0.1-0.7,0.2-1.2c0.1-1,0.3-2,0.3-3
		c0-3,0-6,0-9c0-1.8,0-3.7,0-5.5c0.1-25.8,9.8-50,27.3-68.3C51.6,18.9,75.4,8.1,101.1,6.8c1.6-0.1,3.2-0.1,4.7-0.1
		c19.2,0,37.8,5.6,54,16.3c16.2,10.7,28.8,25.7,36.4,43.4c6.1,14.3,8.6,30.2,7.9,50c-0.1,1.6,0.1,3.2,0.3,4.7c0.1,0.7,0.1,1.3,0.2,2
		l0.2,1.9l5.5-0.2l0.1-1.8C211.4,110.3,211.2,99.8,209.7,89.9z"/>
	<path fill="#FFFFFF" d="M177.1,139.9v-0.1c0-9.2,0-18.8-0.1-28.2c-0.1-6-0.7-11.1-1.8-15.8c-8.2-33-36.3-55.2-70-55.2
		c-3.5,0-7,0.2-10.5,0.7C62.8,45.6,36.3,73.2,34.4,104c-1.1,17.7-0.8,35.8-0.4,53.3c0.1,6,0.2,12.2,0.3,18.3c0,2.9,0.7,5.6,1.4,8.3
		c0.3,1.2,0.6,2.4,0.8,3.5l0.4,1.8l5.4-0.6l0.1-1.7c0-0.3,0-0.6,0.1-0.9c0.1-0.8,0.1-1.6,0-2.6c-0.2-1.3-0.4-2.5-0.7-3.7
		c-0.4-2.1-0.8-4-0.8-5.9c-0.1-4-0.1-7.9-0.2-11.9c-0.3-16.9-0.5-34.3-0.3-51.5c0.3-19,7.8-34.8,22.3-47.1c13-11,27-16.5,41.7-16.5
		c8.5,0,17.4,1.9,26.2,5.7c23.8,10.1,37.4,29.1,39.4,54.8c0.7,9.8,0.7,20,0.6,29.7c0,4.9-0.1,10.1,0,15.1
		c0.2,11.9-0.6,24.4-7.1,35.7c-0.5,0.9-0.4,1.7-0.2,2.7c0.1,0.5,0.2,1,0.2,1.8l0.5,5.3l3.1-4.3c0.6-0.8,1.1-1.5,1.5-2
		c0.9-1.1,1.5-1.9,2-2.9c4.3-8.5,6.5-17.7,6.4-27.4C177.1,154,177.1,146.8,177.1,139.9z"/>
	<path fill="#FFFFFF" d="M170.3,37.8c-17.4-16.4-40.2-25.4-64.4-25.4c-19.2,0-37.5,5.7-53,16.5c-0.9,0.6-1.8,1.3-2.6,1.9
		c-5.8,3.7-10.3,7.7-13.1,11.7c-5.2,5.6-9.8,11.8-13.4,18.4c-7,11.8-10.8,23.3-11.5,35c-0.8,13.8-0.9,27.8-0.9,41.3l0,0.2
		c0,5.2,0,10.3-0.1,15.5c0,1.1,0.4,2.1,0.8,3c0.1,0.3,0.2,0.5,0.3,0.8l0.5,1.5l4.5-0.6l0.2-1.6c0-0.4,0.1-0.7,0.2-1.1
		c0.1-0.9,0.3-1.8,0.3-2.8c0-9.5,0-18.9,0-28.4l0.1-0.4c0-0.4,0.1-0.7,0.2-1.1c0.1-0.8,0.3-1.8,0.3-2.7c0-2.7,0-5.3,0-8
		c0-1.7,0-3.3,0-5c0-10,1.7-19.8,4.9-29.1c2.3-6.3,5.4-12.4,9.2-18.2c0.6-0.9,1.1-1.9,1.6-2.8c0.1-0.3,0.3-0.5,0.4-0.8
		c0.9-1.3,1.9-2.6,2.8-3.8c20.1-21.2,42.5-32,66.3-32c8.8,0,18,1.5,27.3,4.3c32.1,9.9,52.7,32.5,61.2,67.1c0.6,3.3,1,6.5,1.2,9.8v60
		l3.6-5.2c2.4-3.4,2.7-21.8,2.5-31.9l0.2-1.8c0.9-11.4,0.7-20.8-0.7-29.6C195.9,71.2,186.2,52.8,170.3,37.8z"/>
</g>
</svg>
