<?xml version="1.0" encoding="utf-8"?>
<!-- Generator: Adobe Illustrator 18.0.0, SVG Export Plug-In . SVG Version: 6.00 Build 0)  -->
<!DOCTYPE svg PUBLIC "-//W3C//DTD SVG 1.1//EN" "http://www.w3.org/Graphics/SVG/1.1/DTD/svg11.dtd">
<svg version="1.1" id="Layer_1" xmlns="http://www.w3.org/2000/svg" xmlns:xlink="http://www.w3.org/1999/xlink" x="0px" y="0px"
	 viewBox="0 0 386.4 67.6" enable-background="new 0 0 386.4 67.6" xml:space="preserve">
<g>
	<path fill="#FFFFFF" d="M17.2,22.8c-0.2-0.9-0.3-1.7-0.3-2.6c0-8.3,6.7-15,15-15c8.3,0,15,6.7,15,15c0,0.1,0,0.2,0,0.3l5.5,1.8
		c0.3-1.2,0.4-2.5,0.4-3.9C52.8,8.3,44.5,0,34.3,0C24.1,0,15.9,8.3,15.9,18.5c0,1.6,0.2,3.1,0.6,4.6L17.2,22.8z"/>
	<path fill="#FFFFFF" d="M18.9,43.8c-1.2,0.5-2.6,0.8-4,0.8C9.1,44.6,4.4,40,4.4,34.2c0-5.6,4.4-10.1,9.9-10.4V20
		c-0.5-0.1-1-0.1-1.4-0.1C5.8,19.9,0,25.7,0,32.8s5.8,12.9,12.9,12.9c2.2,0,4.2-0.5,6-1.5V43.8z"/>
	<path fill="#FFFFFF" d="M51.5,25.2L51.5,25.2C51.5,25.2,51.5,25.2,51.5,25.2c-1.2-0.5-2.4-1-4.9-1.3c-8.1-1-13.5,2.2-13.5,2.2
		s0-3.4-0.8-5.1c-0.8-1.7-2.1-3.3-3.5-4.2c-0.3-0.2-0.7-0.2-0.8-0.1c-0.1,0.1-0.1,0.4,0.2,0.8c1,1.2,2.3,3,2.3,5.3
		c0,2.3-0.7,4.9-4.4,10.1c-3.3,4.7-3.7,8.2-3.7,14.9c0,4.9,0.4,10.8,0.8,17.3L12.5,66v1.6h33.4V66l-11.8-0.7
		c-0.2-2.1-0.5-6.3-0.9-12.6c-0.1-1.2-0.1-2.3,0-3.4v0c0-0.6,0.1-1.3,0.2-1.8c1-6.6,4.8-8.6,6-9.6c1.4-1.2,0.3-2-0.2-1.6
		c-0.6,0.8-2.8,1.7-5,2.8c-1.4,0.7-2.6,1.8-3.8,3.4c0,0.1-0.1,0.1-0.1,0.2c-0.6,0.8-1.2,1.8-1.9,2.9c-0.6-4.3-0.1-7.6,0.9-10.2
		c0.2-0.5,0.4-0.9,0.6-1.3c1.2-2.2,2.7-3.6,4.7-5c2-1.4,5.5-2.7,10.5-2.1c6,0.8,10.7,5.9,10.7,12.1c0,5.6-3.8,10.3-8.9,11.8v4.6
		c7.9-0.9,14-7.6,14-15.7C60.9,33.2,57.1,27.7,51.5,25.2z"/>
	<path fill="#FFFFFF" d="M111.2,41.1c0,1.8-0.3,3.3-1,4.7c-0.7,1.4-1.6,2.5-2.7,3.4c-1.3,1.1-2.8,1.8-4.4,2.3
		c-1.6,0.5-3.7,0.7-6.1,0.7H82.7v-36h12.6c2.6,0,4.6,0.1,6,0.3c1.4,0.2,2.6,0.6,3.8,1.3c1.3,0.7,2.2,1.6,2.9,2.8c0.6,1.2,1,2.5,1,4
		c0,1.8-0.4,3.3-1.3,4.7c-0.9,1.4-2.1,2.4-3.6,3v0.2c2.2,0.5,4,1.4,5.3,2.9C110.6,36.7,111.2,38.7,111.2,41.1z M99.7,26.3
		c0-0.6-0.1-1.2-0.4-1.8c-0.3-0.6-0.8-1.1-1.4-1.3c-0.6-0.3-1.3-0.4-2.1-0.4c-0.8,0-2,0-3.6,0h-0.6v7.6h1.1c1.5,0,2.6,0,3.2-0.1
		c0.6,0,1.3-0.2,1.9-0.5c0.7-0.3,1.2-0.8,1.5-1.4C99.6,27.8,99.7,27.1,99.7,26.3z M102,40.9c0-1.1-0.2-2-0.7-2.6
		c-0.4-0.6-1.1-1.1-2-1.4c-0.5-0.2-1.3-0.3-2.2-0.4c-1,0-2.2,0-3.8,0h-1.7v9h0.5c2.3,0,4,0,4.8,0c0.9,0,1.8-0.3,2.7-0.7
		c0.8-0.3,1.4-0.9,1.8-1.6C101.8,42.6,102,41.8,102,40.9z"/>
	<path fill="#FFFFFF" d="M166.4,52.1H158v-14c0-1.1,0-2.1-0.1-3.1c-0.1-1-0.3-1.8-0.5-2.3c-0.3-0.6-0.7-1-1.3-1.3
		c-0.5-0.3-1.3-0.4-2.2-0.4c-0.7,0-1.4,0.1-2.1,0.4c-0.7,0.3-1.4,0.6-2.2,1.2v19.5h-8.4V24.3h8.4v3.6c1.4-1.1,2.7-2,4-2.6
		c1.3-0.6,2.8-1,4.3-1c2.8,0,4.9,0.8,6.3,2.5c1.5,1.7,2.2,4.1,2.2,7.3V52.1z"/>
	<path fill="#FFFFFF" d="M183.9,52.1c-2.2,0-4.3-0.3-6.1-0.8c-1.8-0.5-3.4-1.4-4.8-2.5c-1.4-1.1-2.4-2.6-3.1-4.3
		c-0.8-1.7-1.1-3.8-1.1-6.1c0-2.5,0.4-4.7,1.2-6.4c0.8-1.8,1.9-3.2,3.3-4.4c1.3-1.1,2.9-1.9,4.7-2.4c1.8-0.5,3.7-0.8,5.7-0.8
		c1.5,0,3,0.2,4.5,0.5c1.5,0.3,3,0.9,4.5,1.6v7.1h-1.1c-0.3-0.3-0.7-0.7-1.2-1c-0.5-0.4-1-0.7-1.6-1c-0.6-0.3-1.3-0.6-2.1-0.8
		c-0.8-0.2-1.6-0.3-2.6-0.3c-2.1,0-3.8,0.7-5,2.2c-1.2,1.5-1.8,3.4-1.8,5.9c0,2.7,0.6,4.6,1.9,5.9c1.3,1.3,2.9,1.9,5,1.9
		c1.1,0,2-0.1,2.8-0.3c0.8-0.2,1.5-0.5,2.1-0.8c0.6-0.3,1-0.7,1.4-1c0.4-0.3,0.7-0.7,1-0.9h1.1v7.1c-0.5,0.2-1,0.4-1.7,0.7
		c-0.6,0.3-1.3,0.5-1.9,0.7c-0.8,0.2-1.6,0.4-2.3,0.5C186,52.1,185.1,52.1,183.9,52.1z"/>
	<path fill="#FFFFFF" d="M222.8,38.2c0,4.3-1.2,7.7-3.6,10.2c-2.4,2.5-5.9,3.7-10.3,3.7c-4.4,0-7.8-1.2-10.3-3.7
		c-2.4-2.5-3.7-5.9-3.7-10.2c0-4.4,1.2-7.8,3.7-10.2c2.4-2.5,5.9-3.7,10.3-3.7c4.4,0,7.8,1.2,10.3,3.7
		C221.6,30.5,222.8,33.9,222.8,38.2z M214.2,38.3c0-1.6-0.1-2.8-0.4-3.9c-0.3-1-0.6-1.9-1.1-2.5c-0.5-0.7-1.1-1.1-1.7-1.4
		c-0.6-0.3-1.3-0.4-2.1-0.4c-0.7,0-1.4,0.1-2,0.3c-0.6,0.2-1.2,0.7-1.7,1.3c-0.5,0.6-0.9,1.4-1.1,2.5c-0.3,1.1-0.4,2.4-0.4,4
		c0,1.6,0.1,2.9,0.4,3.9c0.3,1,0.6,1.8,1.1,2.4c0.4,0.6,1,1.1,1.7,1.3c0.7,0.3,1.4,0.4,2.2,0.4c0.7,0,1.4-0.1,2.1-0.4
		c0.7-0.3,1.3-0.7,1.7-1.3c0.5-0.7,0.9-1.5,1.1-2.4C214,41.2,214.2,39.9,214.2,38.3z"/>
	<path fill="#FFFFFF" d="M130.4,44.6v-5.5c-1.4,0.1-2.6,0.3-3.5,0.4c-0.9,0.1-1.8,0.3-2.6,0.6c-0.7,0.2-1.3,0.6-1.7,1.1
		c-0.4,0.5-0.6,1.2-0.6,2c0,1.2,0.3,2.1,1,2.6c0.7,0.5,1.7,0.7,3,0.7c0.7,0,1.5-0.2,2.3-0.5C129.1,45.6,129.8,45.2,130.4,44.6z
		 M130.4,48.7c-0.6,0.5-1.1,0.9-1.6,1.3c-0.5,0.4-1.1,0.8-1.9,1.1c-0.8,0.4-1.5,0.6-2.2,0.8c-0.7,0.2-1.7,0.3-3,0.3
		c-2.4,0-4.4-0.8-6-2.3c-1.6-1.6-2.4-3.5-2.4-5.9c0-2,0.4-3.5,1.2-4.8c0.8-1.2,2-2.2,3.5-2.9c1.5-0.7,3.4-1.2,5.5-1.5
		c2.1-0.3,4.4-0.5,6.9-0.7v-0.2c0-1.5-0.5-2.5-1.7-3c-1.1-0.6-2.8-0.8-5-0.8c-1,0-2.2,0.2-3.5,0.5c-1.3,0.4-2.6,0.8-3.9,1.4h-0.7
		v-6.4c0.8-0.2,2.2-0.5,4.1-0.8c1.9-0.3,3.8-0.5,5.7-0.5c4.7,0,8.1,0.8,10.2,2.3c2.1,1.5,3.2,3.8,3.2,6.9v18.7h-8.4V48.7z"/>
	<path fill="#FFFFFF" d="M263.4,24.2h-15.1v5.6h13.9v6.9h-13.9v15.5h-9v-36h24.1V24.2z"/>
	<path fill="#FFFFFF" d="M345.5,52.1c-2,0-3.9-0.2-5.7-0.6c-1.8-0.4-3.2-0.9-4.4-1.5v-7h0.7c0.4,0.3,0.9,0.6,1.4,1
		c0.5,0.4,1.2,0.7,2.2,1.1c0.8,0.4,1.7,0.7,2.7,0.9c1,0.3,2.1,0.4,3.2,0.4c1.2,0,2.2-0.2,3.2-0.5c0.9-0.4,1.4-0.9,1.4-1.7
		c0-0.6-0.2-1.1-0.6-1.4c-0.4-0.3-1.2-0.6-2.4-0.9c-0.6-0.2-1.5-0.3-2.5-0.5c-1-0.2-1.8-0.4-2.6-0.6c-2.1-0.6-3.7-1.6-4.8-2.9
		c-1.1-1.3-1.6-2.9-1.6-5c0-1.2,0.3-2.3,0.8-3.3c0.6-1,1.4-2,2.5-2.8c1.1-0.8,2.4-1.4,4-1.9c1.6-0.5,3.4-0.7,5.4-0.7
		c1.9,0,3.7,0.2,5.2,0.5c1.6,0.4,2.9,0.8,4,1.3v6.7h-0.7c-0.3-0.2-0.8-0.5-1.4-0.9c-0.6-0.4-1.2-0.7-1.8-0.9
		c-0.7-0.3-1.5-0.6-2.4-0.8c-0.9-0.2-1.8-0.3-2.7-0.3c-1.2,0-2.3,0.2-3.1,0.6c-0.8,0.4-1.3,1-1.3,1.6c0,0.6,0.2,1.1,0.6,1.4
		c0.4,0.3,1.3,0.7,2.7,1c0.7,0.2,1.6,0.3,2.5,0.5c0.9,0.2,1.8,0.4,2.7,0.7c2,0.6,3.4,1.5,4.4,2.7c1,1.2,1.5,2.8,1.5,4.7
		c0,1.2-0.3,2.4-0.9,3.5c-0.6,1.1-1.4,2.1-2.5,2.8c-1.2,0.8-2.5,1.5-4.1,1.9C349.6,51.9,347.7,52.1,345.5,52.1z"/>
	<path fill="#FFFFFF" d="M324.6,52.1V38.3c0-1.3,0-2.4-0.1-3.3c-0.1-0.9-0.2-1.6-0.4-2.2c-0.2-0.6-0.6-1-1.1-1.2
		c-0.5-0.3-1.2-0.4-2.1-0.4c-0.6,0-1.3,0.1-1.9,0.4c-0.6,0.3-1.3,0.7-2.1,1.2v19.4h-8.5V38.3c0-1.3,0-2.4-0.1-3.3
		c-0.1-0.9-0.2-1.7-0.4-2.2c-0.2-0.6-0.6-1-1.1-1.2c-0.5-0.3-1.2-0.4-2.1-0.4c-0.7,0-1.4,0.2-2,0.5c-0.7,0.3-1.3,0.7-1.9,1.1v19.4
		h-8.5V24.2h8.5v3.7c1.4-1.1,2.7-2.1,3.9-2.7c1.2-0.7,2.6-1,4.1-1c1.7,0,3.1,0.4,4.4,1.2c1.3,0.8,2.2,1.9,2.9,3.5
		c1.6-1.5,3.2-2.6,4.6-3.4c1.4-0.8,2.9-1.2,4.4-1.2c1.3,0,2.4,0.2,3.4,0.6c1,0.4,1.8,1,2.5,1.8c0.8,0.9,1.3,1.9,1.7,3
		c0.4,1.2,0.6,2.7,0.6,4.6v17.8H324.6z"/>
	<path fill="#FFFFFF" d="M378,44.6v-5.5c-1.4,0.1-2.6,0.3-3.5,0.4c-0.9,0.1-1.8,0.3-2.6,0.6c-0.7,0.2-1.3,0.6-1.7,1.1
		c-0.4,0.5-0.6,1.2-0.6,2c0,1.2,0.3,2.1,1,2.6c0.7,0.5,1.7,0.7,3,0.7c0.7,0,1.5-0.2,2.3-0.5C376.6,45.6,377.3,45.2,378,44.6z
		 M378,48.7c-0.6,0.5-1.1,0.9-1.6,1.3c-0.5,0.4-1.1,0.8-1.8,1.1c-0.8,0.4-1.5,0.6-2.2,0.8c-0.7,0.2-1.7,0.3-3,0.3
		c-2.4,0-4.4-0.8-6-2.3c-1.6-1.6-2.4-3.6-2.4-5.9c0-2,0.4-3.5,1.2-4.8c0.8-1.2,2-2.2,3.5-2.9c1.5-0.7,3.4-1.2,5.5-1.5
		c2.1-0.3,4.4-0.5,6.9-0.7v-0.2c0-1.5-0.5-2.5-1.6-3c-1.1-0.6-2.8-0.8-5-0.8c-1,0-2.2,0.2-3.5,0.5c-1.3,0.4-2.6,0.8-3.9,1.4h-0.7
		v-6.4c0.8-0.2,2.2-0.5,4.1-0.8c1.9-0.3,3.8-0.5,5.6-0.5c4.7,0,8.1,0.8,10.2,2.3c2.1,1.5,3.2,3.8,3.2,6.9v18.7H378V48.7z"/>
	<path fill="#FFFFFF" d="M281.5,44.5V39c-1.4,0.1-2.6,0.3-3.5,0.4c-0.9,0.1-1.8,0.3-2.6,0.6c-0.7,0.2-1.3,0.6-1.7,1.1
		c-0.4,0.5-0.6,1.2-0.6,2c0,1.2,0.3,2.1,1,2.5c0.7,0.5,1.7,0.7,3,0.7c0.7,0,1.5-0.2,2.3-0.5C280.1,45.6,280.8,45.1,281.5,44.5z
		 M281.5,48.6c-0.6,0.5-1.1,0.9-1.6,1.3c-0.5,0.4-1.1,0.8-1.8,1.1c-0.8,0.4-1.5,0.6-2.2,0.8c-0.7,0.2-1.7,0.3-3,0.3
		c-2.4,0-4.4-0.8-6-2.3c-1.6-1.6-2.4-3.5-2.4-5.9c0-2,0.4-3.5,1.2-4.8c0.8-1.2,2-2.2,3.5-2.9c1.5-0.7,3.4-1.2,5.5-1.5
		c2.1-0.3,4.4-0.5,6.9-0.7v-0.2c0-1.5-0.5-2.5-1.6-3c-1.1-0.6-2.8-0.8-5-0.8c-1,0-2.2,0.2-3.5,0.5c-1.3,0.4-2.6,0.8-3.9,1.4h-0.7
		v-6.4c0.8-0.2,2.2-0.5,4.1-0.8c1.9-0.3,3.8-0.5,5.6-0.5c4.7,0,8.1,0.8,10.2,2.3c2.1,1.5,3.2,3.8,3.2,6.9v18.7h-8.4V48.6z"/>
</g>
</svg>
